<?xml version="1.0" encoding="utf-8"?>
<!-- Generator: Adobe Illustrator 22.0.1, SVG Export Plug-In . SVG Version: 6.00 Build 0)  -->
<svg version="1.1" id="Layer_1" xmlns="http://www.w3.org/2000/svg" xmlns:xlink="http://www.w3.org/1999/xlink" x="0px" y="0px"
	 viewBox="0 0 141.7 141.7" style="enable-background:new 0 0 141.7 141.7;" xml:space="preserve">
<g>
	<g>
		<path d="M14.4,48.9c19.9,2.3,40,2.8,60.1,2.8c18.9,0,38.4,0.9,56.9-3.6c-1.1-0.8-2.1-1.6-3.2-2.4c0.6,10.4-0.1,20.7-1.4,31
			c-1.1,8.5-1.3,19.4-6.1,26.7c-4.5,6.8-12.9,9-20.5,10.2c-9.8,1.6-19.8,2.5-29.7,3.7c-9.5,1.1-21.1,4.3-30.1,0.1
			c-7.1-3.3-11.9-10.2-15.5-16.9c-4.4-8.1-7.7-16.9-10.5-25.7c-2.9-9.4-6.6-20.7-2.2-30.2c1.3-2.9-3-5.4-4.3-2.5
			c-6.8,14.6,0.7,33.2,6.3,47.1c5,12.5,11.6,27.5,24.9,33.1c7.5,3.2,15.6,1.9,23.4,1c9.5-1.1,19-2.3,28.6-3.4
			c12.7-1.5,28.5-2.9,34.9-15.9c3.8-7.7,4.3-16.9,5.4-25.3c1.4-10.9,2.4-21.9,1.7-32.9c-0.1-1.6-1.5-2.8-3.2-2.4
			c-18.7,4.6-38.5,3.5-57.6,3.4c-19.4,0-38.8-0.6-58.1-2.8C11.2,43.6,11.2,48.6,14.4,48.9L14.4,48.9z"/>
	</g>
</g>
<g>
	<g>
		<path d="M47.5,48.5c0.5-5.6-0.4-11.2-0.1-16.9c0.2-3.7,0.9-8.2,4.8-9.7c3.4-1.4,8-1.3,11.6-1.4C77,19.9,83.6,36.6,85.1,47.7
			c0.4,3.2,5.3,1.8,4.8-1.3c-1.1-8.2-4.2-15.8-9.3-22.3c-5.2-6.7-10.3-9.1-18.7-8.5C55.1,16,47.4,16.1,44.3,23
			c-3.6,8-1,17.2-1.8,25.5C42.2,51.7,47.2,51.7,47.5,48.5L47.5,48.5z"/>
	</g>
</g>
<g>
	<g>
		<path d="M37.8,47c0.6-8.2-1.3-18.3,3.8-25.5c5.3-7.5,17.4-6.8,25.6-6.1c4.4,0.4,9.2,1,13.4,2.4c4.4,1.5,6.9,4.8,8.6,9
			c3.2,8,5.1,16.9,6.9,25.3c0.7,3.1,5.5,1.8,4.8-1.3c-1.3-6-2.8-11.9-4.5-17.8c-1.3-4.5-2.6-9.2-5.2-13.1
			c-5.5-8.2-16.9-9.1-25.9-9.6c-9.1-0.5-20.7-0.4-27,7.3c-6.7,8.3-4.8,19.6-5.5,29.4C32.5,50.2,37.5,50.2,37.8,47L37.8,47z"/>
	</g>
</g>
<g>
	<g>
		<path d="M39,70.5c18.5,0,37.1,0,55.6,0c-0.8-0.6-1.6-1.2-2.4-1.8c1,5.8,3.1,17.2-1.4,21.7c-2.4,2.4-6.5,2.9-9.8,3.5
			c-4,0.9-8.1,1.6-12.2,1.6c-6.3,0-13.1-1.6-17.6-6.4c-4.8-5.1-7-13.6-9.7-20c-1.3-3-5.6-0.4-4.3,2.5c3.4,8,5.9,17.9,13.1,23.3
			c6.9,5.2,15.7,6.1,24,5.1c6.7-0.8,17.3-1.6,21.5-7.7c4.6-6.6,2.5-17.8,1.3-25.1c-0.2-1.1-1.4-1.8-2.4-1.8c-18.5,0-37.1,0-55.6,0
			C35.8,65.5,35.8,70.5,39,70.5L39,70.5z"/>
	</g>
</g>
</svg>
