<?xml version="1.0" encoding="utf-8"?>
<!-- Generator: Adobe Illustrator 22.0.1, SVG Export Plug-In . SVG Version: 6.00 Build 0)  -->
<svg version="1.1" id="Layer_1" xmlns="http://www.w3.org/2000/svg" xmlns:xlink="http://www.w3.org/1999/xlink" x="0px" y="0px"
	 viewBox="0 0 141.7 141.7" style="enable-background:new 0 0 141.7 141.7;" xml:space="preserve">
<g>
	<g>
		<path d="M21.3,77.5c-0.5-6.9,4.3-13.9,8-19.4c3.5-5.2,7.7-9.9,12.1-14.4c4.6-4.7,9.6-9,14.7-13.2c2.3-1.9,4.7-3.8,7-5.7
			c3.9-3.1,6-2.8,10.5-1.5c27.2,8.2,44,33.2,56.1,57.3c1.4,2.9,5.8,0.3,4.3-2.5c-7.2-14.3-15.5-28.4-26.9-39.7
			C97.5,29,83.3,18.6,69.4,17.3c-6.1-0.6-10.5,4.7-14.8,8.2c-5.9,4.9-11.8,9.9-17.1,15.3c-5.1,5.1-9.8,10.7-13.7,16.8
			c-3.7,5.8-7.9,12.8-7.4,19.9C16.6,80.7,21.6,80.8,21.3,77.5L21.3,77.5z"/>
	</g>
</g>
<g>
	<g>
		<path d="M22,83c36.2,0,72.3,0,108.5,0c3.2,0,3.2-5,0-5C94.3,78,58.2,78,22,78C18.8,78,18.8,83,22,83L22,83z"/>
	</g>
</g>
<g>
	<g>
		<path d="M32.7,84c0.3,9.4,1.4,22.5,11,27c10.7,5,24,4.8,35.5,5c6.2,0.1,12.5,0.1,18.7,0c4.5-0.1,9.3,0.2,12.7-3.2
			c3.3-3.3,5-8.8,6.1-13.2c1.6-5.9,2.1-12,1.8-18.1c-0.2-3.2-5.2-3.2-5,0c0.5,8.4-0.4,19.6-5.6,26.7c-3,4.1-11,2.8-15.6,2.8
			c-4.4,0-8.7,0-13.1-0.1c-9.7-0.2-19.7-0.3-29.2-3c-4.9-1.4-8.1-3.3-9.9-8.4c-1.7-5-2.3-10.3-2.5-15.6C37.6,80.8,32.6,80.8,32.7,84
			L32.7,84z"/>
	</g>
</g>
<g>
	<g>
		<path d="M63.1,91c-0.3,4.2-1.3,13,4.4,14c3.5,0.6,7.5,0,11.1,0c2.6,0,6.1,0.7,8.1-1.4c1.9-2,1.4-5.2,1.3-7.7
			c-0.1-2.3,0-5.1-1.8-6.8c-1.9-1.9-5.2-1.5-7.7-1.7c-4.4-0.3-8.7-0.6-13.1-0.9c-3.2-0.2-3.2,4.8,0,5c4.4,0.3,8.7,0.6,13.1,0.9
			c2.2,0.2,4-0.4,4.4,2.1c0.1,0.8,0.6,4.9,0.1,5.5c-0.5,0.6-5,0-5.9,0c-2,0-3.9,0-5.9,0c-0.5,0-2.6,0.3-2.9,0
			c-0.1-0.1-0.2-2.4-0.2-2.8c-0.2-2.1-0.1-4.1,0-6.1C68.3,87.8,63.3,87.8,63.1,91L63.1,91z"/>
	</g>
</g>
<g>
	<g>
		<path d="M67.5,99c4.7,0,9.3,0,14,0c3.2,0,3.2-5,0-5c-4.7,0-9.3,0-14,0C64.3,94,64.3,99,67.5,99L67.5,99z"/>
	</g>
</g>
<g>
	<g>
		<path d="M72,91.5c-0.1,3.3,0.5,6.6,1.6,9.7c1.1,3,5.9,1.7,4.8-1.3c-1-2.7-1.5-5.4-1.4-8.3C77,88.3,72,88.3,72,91.5L72,91.5z"/>
	</g>
</g>
</svg>
