<?xml version="1.0" encoding="utf-8"?>
<!-- Generator: Adobe Illustrator 22.0.1, SVG Export Plug-In . SVG Version: 6.00 Build 0)  -->
<svg version="1.1" id="Layer_1" xmlns="http://www.w3.org/2000/svg" xmlns:xlink="http://www.w3.org/1999/xlink" x="0px" y="0px"
	 viewBox="0 0 141.7 141.7" style="enable-background:new 0 0 141.7 141.7;" xml:space="preserve">
<g>
	<g>
		<path d="M69.5,21.5c-3.3,0-6.6,0-9.9,0c-2,0-4.7-0.3-6.5,0.8c-3.8,2.3-4.1,9.3-4.1,13.2c0,3.2,5,3.2,5,0c0-1.9,0.1-3.8,0.6-5.6
			c0.5-2.1,0.6-3.3,2.9-3.4c4-0.1,8,0,12,0C72.7,26.5,72.7,21.5,69.5,21.5L69.5,21.5z"/>
	</g>
</g>
<g>
	<g>
		<path d="M51,39.1c-3.6-3-8.7-6.8-13.6-7.2c-4.8-0.4-6.9,4.7-8.6,8.4c-1.3,2.9,3,5.4,4.3,2.5c0.7-1.4,1.3-3,2.3-4.3
			c1.3-1.7,1.7-1.8,3.6-1c3.1,1.2,5.9,3,8.5,5.1C49.9,44.6,53.5,41.1,51,39.1L51,39.1z"/>
	</g>
</g>
<g>
	<g>
		<path d="M79.9,30.8c7.3-5,16.3,0.4,15.6,9.2c-0.3,3.2,4.7,3.2,5,0c1.1-12.5-12.8-20.5-23.1-13.5C74.7,28.3,77.2,32.6,79.9,30.8
			L79.9,30.8z"/>
	</g>
</g>
<g>
	<g>
		<path d="M98.3,51.4c3.9,1.5,8.5,2,12,4.4c1.5,1.1,3.2,2.8,2.7,4.8c-0.5,2-3.1,3.2-4.8,4.1c-2.9,1.5-0.3,5.8,2.5,4.3
			c4.9-2.5,9.6-7,6.5-12.9c-3.5-6.4-11.4-7.1-17.5-9.5C96.7,45.4,95.4,50.2,98.3,51.4L98.3,51.4z"/>
	</g>
</g>
<g>
	<g>
		<path d="M102.5,74.5c0,2.4,1.1,9.3-0.8,10.6c-2.9,2.1-8.8,1.2-12,0.4c-3.1-0.8-4.5,4-1.3,4.8c5,1.2,11.7,1.6,16.3-1.1
			c1.8-1.1,2.7-2.8,2.8-4.9c0.3-3.3,0-6.6,0-9.9C107.5,71.3,102.5,71.3,102.5,74.5L102.5,74.5z"/>
	</g>
</g>
<g>
	<g>
		<path d="M72.1,94c1.4,2.7-10.8,5-12.3,5.5c-3.1,0.9-1.8,5.7,1.3,4.8c5.4-1.5,20.2-3.8,15.3-12.8C74.8,88.6,70.5,91.1,72.1,94
			L72.1,94z"/>
	</g>
</g>
<g>
	<g>
		<path d="M25.4,54.6c-2.7,4.1-5.7,9.5-6,14.5c-0.4,5.6,5.8,7.2,9.8,9.1c2.9,1.4,5.4-2.9,2.5-4.3c-3.4-1.7-8.1-2.7-6.6-7.3
			c1.1-3.4,2.7-6.5,4.6-9.5C31.5,54.4,27.1,51.9,25.4,54.6L25.4,54.6z"/>
	</g>
</g>
<g>
	<g>
		<path d="M37.1,86.7c1.4,2.5-0.2,5.9,0.5,8.7c0.6,2.5,2.3,4.5,4.5,5.8c5.3,3.3,11.5,1.3,16.4-1.7c2.8-1.7,0.2-6-2.5-4.3
			c-3.6,2.2-10.3,4.9-13-0.1c-1.1-1.9-0.4-4-0.3-6c0-1.8-0.3-3.4-1.2-4.9C39.8,81.3,35.5,83.9,37.1,86.7L37.1,86.7z"/>
	</g>
</g>
<g>
	<g>
		<path d="M27.9,79.8c-1.2,1.5-2.4,3.2-3.8,4.6c-1.8,1.8-1.4,1.7-3.8,1.1c-2.1-0.6-3.9-1.3-6.1-1.6c-4.2-0.5-7.2-0.1-8.3,4.3
			C5,91.9,5,96.3,8.3,98.9c3.8,3,8.2,1,12.4,1.5c-0.7-0.4-1.4-0.8-2.2-1.2c2.6,3.9-1.6,9.1,3,12.6c2.5,1.9,6.1,1.8,8.7,0
			c3.2-2.1,5-6.5,4.8-10.2c-0.1-1.9-0.9-3.1-1.5-4.7c-0.7-2-1.9-0.1,0-2.5c1.1-1.4,3.2-2.7,4.6-3.7c2.6-1.9,0.1-6.2-2.5-4.3
			c-2.5,1.9-6.2,4-7.8,6.7c-1.4,2.4-0.2,3.8,0.9,5.9c0.7,1.3,2.4,7.5-0.8,8.3c-1.4-0.5-2.8-1-4.2-1.6c0-0.9,0.1-1.8,0.2-2.8
			c0.1-2.3,0.3-5.7-2.1-7.1c-2.8-1.7-6.6,1.2-9.5-0.2c-1.6-0.8-3.1-4.9-1.7-6.7c0.7-0.9,4.7,0.3,5.9,0.6c2.9,0.9,5.2,2.8,8.1,1.1
			c2.9-1.8,5.2-5.5,7.3-8.2C34.1,79.7,29.8,77.2,27.9,79.8L27.9,79.8z"/>
	</g>
</g>
<g>
	<g>
		<path d="M63.3,52.3c1.4-0.6,2.8-1.2,4.2-1.8c1.3-0.6,3.2-1.8,4.7-1.8c-0.6-0.2-1.2-0.5-1.8-0.7c1.6,1.3,1.9,4.7,2.1,6.5
			c0.2,2.2,0,4.3-0.5,6.5c-0.7,3.1,4.1,4.5,4.8,1.3c1.2-5.1,1.3-11.8-1.6-16.5C74,43.7,72,43.2,69.8,44c-3.1,1.1-6,2.6-9,3.9
			C57.8,49.2,60.4,53.6,63.3,52.3L63.3,52.3z"/>
	</g>
</g>
<g>
	<g>
		<path d="M48.3,59.2c-2.3,2.9-4.8,6.2-4.1,10.1c0.6,3.2,3.1,5.8,6.5,5.8c3.2,0,3.2-5,0-5c-1.3,0-1.7-1.7-1.5-2.7
			c0.3-1.8,1.7-3.3,2.7-4.7C53.8,60.3,50.3,56.7,48.3,59.2L48.3,59.2z"/>
	</g>
</g>
<g>
	<g>
		<path d="M79.7,78.4c1.6,2.1-4.4,1.8-5.6,1.9c-2.7,0.2-5.4,0.4-8.1,0.6c-3.2,0.2-3.2,5.2,0,5c3.1-0.2,6.2-0.5,9.3-0.7
			c2.1-0.2,4.6,0,6.6-0.9c3.2-1.4,4.4-5.6,2.2-8.5C82.1,73.4,77.8,75.9,79.7,78.4L79.7,78.4z"/>
	</g>
</g>
<g>
	<g>
		<path d="M87.3,92.8c0.4-1.1,0.3-1.5-0.2-1.2c-0.3,0.1-0.6,0.2-0.9,0.3c-0.7,0.2-1.3,0.4-2,0.5c-1.4,0.2-2.8,0.1-4.2,0
			c-3.2-0.3-3.2,4.7,0,5c3,0.3,6.3,0,9.1-1.2c2.2-0.9,4.2-3.7,2.5-5.9c-0.8-1.1-2.1-1.6-3.4-0.9C87.1,90,86.5,91.8,87.3,92.8
			L87.3,92.8z"/>
	</g>
</g>
<g>
	<g>
		<path d="M28.3,80.4c0.2,1.4-0.4,2.5-0.7,3.8c-0.3,1.3-0.3,2.5,0.1,3.7c0.8,2.3,3,3.9,5.5,3.2c3.1-0.9,1.8-5.7-1.3-4.8
			c1-0.3,0.4,0.7,0.5-0.3c0-0.5,0.2-0.9,0.3-1.3c0.4-1.4,0.9-2.8,0.7-4.3c-0.2-1.3-1-2.5-2.5-2.5C29.6,77.9,28.1,79.1,28.3,80.4
			L28.3,80.4z"/>
	</g>
</g>
</svg>
