<?xml version="1.0" encoding="utf-8"?>
<!-- Generator: Adobe Illustrator 22.0.1, SVG Export Plug-In . SVG Version: 6.00 Build 0)  -->
<svg version="1.1" id="Layer_1" xmlns="http://www.w3.org/2000/svg" xmlns:xlink="http://www.w3.org/1999/xlink" x="0px" y="0px"
	 viewBox="0 0 141.7 141.7" style="enable-background:new 0 0 141.7 141.7;" xml:space="preserve">
<g>
	<g>
		<path d="M142.6,139.3c-5.9-27.1-14.1-58.8-42.1-71c-12.6-5.5-26.8-8-39.7-2.2c-12.4,5.5-22.3,15.2-30.3,26
			c-10.8,14.6-18.4,31.4-26.5,47.6c-1.5,2.9,2.9,5.4,4.3,2.5c8.2-16.1,15.7-33,26.5-47.6c9.2-12.4,24.1-27,40.7-27.1
			C93,67.3,110,76.8,119.9,91c10.2,14.7,14.1,32.4,17.8,49.6C138.4,143.8,143.2,142.4,142.6,139.3L142.6,139.3z"/>
	</g>
</g>
<g>
	<g>
		<path d="M83.1,13.8c-10.5-2.1-21.4,2-27.5,10.9c-6.5,9.5-6.9,26.4,0.3,35.6c6.4,8.2,18.5,10.6,27.8,6.5
			c10.1-4.4,16.4-15.4,16.7-26.2c0.3-12.2-7-24.2-18.8-27.8c-3.1-1-4.4,3.9-1.3,4.8c23.1,7.1,17.9,47.4-7,46.1
			C58.7,63,54.2,48.8,56.3,36.3c2.1-12,13.4-20.2,25.4-17.7C84.9,19.2,86.3,14.4,83.1,13.8L83.1,13.8z"/>
	</g>
</g>
<g>
	<g>
		<path d="M65.5,32.5c3.2,0,3.2-5,0-5C62.3,27.5,62.3,32.5,65.5,32.5L65.5,32.5z"/>
	</g>
</g>
<g>
	<g>
		<path d="M81,31c3.2,0,3.2-5,0-5C77.8,26,77.8,31,81,31L81,31z"/>
	</g>
</g>
<g>
	<g>
		<path d="M62,38.1c-0.6,9.9,6.2,18.8,16.2,20c4.2,0.5,7.9,0,9.9-4c2.7-5.2,3.3-11.8,2.8-17.6c-0.2-3.2-5.2-3.2-5,0
			c0.4,6,0.3,18.4-8.5,16.4c-7-1.6-10.9-7.9-10.5-14.8C67.1,34.8,62.1,34.9,62,38.1L62,38.1z"/>
	</g>
</g>
</svg>
