<?xml version="1.0" encoding="utf-8"?>
<!-- Generator: Adobe Illustrator 22.0.1, SVG Export Plug-In . SVG Version: 6.00 Build 0)  -->
<svg version="1.1" id="Layer_1" xmlns="http://www.w3.org/2000/svg" xmlns:xlink="http://www.w3.org/1999/xlink" x="0px" y="0px"
	 viewBox="0 0 141.7 141.7" style="enable-background:new 0 0 141.7 141.7;" xml:space="preserve">
<g>
	<g>
		<path d="M18,24.6c17,0,34-0.1,51-0.1c8.5,0,17,0,25.5-0.1c3.9,0,7.8,0,11.8,0c4.3,0,10-1,14.2,0.2c-0.6-0.6-1.2-1.2-1.7-1.7
			c0.7,3,0,7.1-0.1,10.2c-0.1,3.3-0.2,6.5-0.3,9.8c-0.2,6.9-0.4,13.7-0.6,20.6c-0.4,13.4-0.7,26.8-1.1,40.1c-0.1,3.2,4.9,3.2,5,0
			c0.4-14,0.8-28.1,1.2-42.1c0.2-6.9,0.4-13.7,0.6-20.6c0.2-6.1,1.5-13.4,0.1-19.3c-0.2-0.8-0.9-1.5-1.7-1.7
			c-3.6-1-7.9-0.4-11.6-0.4c-4.6,0-9.2,0-13.7,0c-8.5,0-17,0-25.5,0.1c-17.7,0-35.3,0.1-53,0.1C14.8,19.6,14.8,24.6,18,24.6L18,24.6
			z"/>
	</g>
</g>
<g>
	<g>
		<path d="M16.4,24.9c4.1,18.1,6.6,36.6,7.4,55.1c0.6,14.9,1.9,33.4-9.6,44.8c-2.3,2.3,1.2,5.8,3.5,3.5
			C29.5,116.8,29.5,99.2,29,83.9c-0.6-20.3-3.3-40.5-7.8-60.3C20.6,20.5,15.7,21.8,16.4,24.9L16.4,24.9z"/>
	</g>
</g>
<g>
	<g>
		<path d="M115.9,102.8c-4.2,5.6-12.7,6.1-19.1,6.7c-7.6,0.8-15.2,1.1-22.9,1.2c-13.5,0.2-30.1,2.2-42.1-5.4
			c-2.7-1.7-5.2,2.6-2.5,4.3c13.7,8.7,33,6.3,48.5,6c8.9-0.2,17.9-0.6,26.8-2.1c6.2-1,11.8-3.1,15.7-8.2
			C122.1,102.7,117.8,100.2,115.9,102.8L115.9,102.8z"/>
	</g>
</g>
<g>
	<g>
		<path d="M33.5,45.9c12.7,1.3,25.4,1.9,38.2,1.7c10.4-0.2,20.7-1.1,30-6c2.8-1.5,0.3-5.8-2.5-4.3c-9.7,5.1-20.7,5.3-31.4,5.4
			c-11.4,0.1-22.9-0.5-34.2-1.7C30.3,40.6,30.3,45.6,33.5,45.9L33.5,45.9z"/>
	</g>
</g>
<g>
	<g>
		<path d="M37.5,65.8c11,0.9,21.9,1.5,32.9,1.8c9.5,0.2,19.3,0.8,28.3-2.6c3-1.1,1.7-5.9-1.3-4.8c-9.2,3.4-19.3,2.6-28.9,2.3
			c-10.3-0.3-20.7-0.9-31-1.7C34.3,60.5,34.3,65.5,37.5,65.8L37.5,65.8z"/>
	</g>
</g>
<g>
	<g>
		<path d="M39.8,87.8c19.9,3.9,40,5.1,60.2,3.3c3.2-0.3,3.2-5.3,0-5c-19.7,1.7-39.5,0.7-58.9-3.1C37.9,82.4,36.6,87.2,39.8,87.8
			L39.8,87.8z"/>
	</g>
</g>
</svg>
