<?xml version="1.0" encoding="utf-8"?>
<!-- Generator: Adobe Illustrator 22.0.1, SVG Export Plug-In . SVG Version: 6.00 Build 0)  -->
<svg version="1.1" id="Layer_1" xmlns="http://www.w3.org/2000/svg" xmlns:xlink="http://www.w3.org/1999/xlink" x="0px" y="0px"
	 viewBox="0 0 432 200" style="enable-background:new 0 0 432 200;" xml:space="preserve">
<style type="text/css">
	.st0{fill:#333333;}
	.st1{font-family:'Pretendard-Medium-KSCpc-EUC-H';}
	.st2{font-size:142.5689px;}
	.st3{fill:#3FA9F5;}
	.st4{font-family:'Pretendard-Bold-KSCpc-EUC-H';}
	.st5{display:none;opacity:0.63;}
	.st6{display:inline;}
	.st7{fill:#FF7BAC;}
	.st8{opacity:0.63;}
	.st9{fill:#FFF01E;}
	.st10{fill:#FFA71E;}
</style>
<rect x="1" y="1" class="st0" width="432" height="200"/>
<text transform="matrix(0.6611 0 0 1 56.9956 156.9023)" class="st1 st2">오저치고</text>
<path d="M38,92"/>
<text transform="matrix(0.6611 0 0 1 63.9956 148.9023)" class="st3 st4 st2">오저치고</text>
<g class="st5">
	<g class="st6">
		<path class="st7" d="M341.5,13.5c1.9,0,1.9-3,0-3C339.6,10.5,339.6,13.5,341.5,13.5L341.5,13.5z"/>
	</g>
</g>
<g class="st5">
	<g class="st6">
		<path class="st7" d="M342,21.5c13.5,0,13.5-21,0-21C328.5,0.5,328.5,21.5,342,21.5L342,21.5z"/>
	</g>
</g>
<g class="st8">
	<g>
		<path class="st7" d="M10.2,89.4c28.6-19,56.8-38.7,84.6-58.9c3.3-2.4,4.8-6.5,2.7-10.3c-1.9-3.3-7-5.1-10.3-2.7
			c-27.8,20.2-56,39.9-84.6,58.9C-5.3,81.8,2.2,94.8,10.2,89.4L10.2,89.4z"/>
	</g>
</g>
<g class="st8">
	<g>
		<path class="st7" d="M10.9,47.4c16-11.2,32.1-22.2,48.3-33.2c7.9-5.4,0.4-18.4-7.6-13c-16.2,11-32.2,22-48.3,33.2
			C-4.6,39.9,2.9,52.9,10.9,47.4L10.9,47.4z"/>
	</g>
</g>
<g class="st8">
	<g>
		<path class="st7" d="M313.7,196.2c30.5-17,60.4-34.9,91-51.8c8.4-4.7,0.9-17.6-7.6-13c-30.5,16.9-60.5,34.8-91,51.8
			C297.7,187.9,305.3,200.9,313.7,196.2L313.7,196.2z"/>
	</g>
</g>
<g class="st8">
	<g>
		<path class="st7" d="M368.3,200c18.1-13,36.3-26,54.4-39.1c3.3-2.4,4.8-6.5,2.7-10.3c-1.9-3.3-7-5-10.3-2.7
			c-18.1,13-36.3,26-54.4,39.1c-3.3,2.4-4.8,6.5-2.7,10.3C359.9,200.6,365,202.4,368.3,200L368.3,200z"/>
	</g>
</g>
<g class="st8">
	<g>
		<path class="st9" d="M32.8,52.5c23.7-12,47.4-24.2,71-36.4c8.6-4.4,1-17.4-7.6-13c-23.6,12.2-47.3,24.3-71,36.4
			C16.6,43.9,24.2,56.8,32.8,52.5L32.8,52.5z"/>
	</g>
</g>
<g class="st8">
	<g>
		<path class="st9" d="M353.1,185.2c24.8-4.6,49.4-10,73.8-16.3c9.3-2.4,5.4-16.8-4-14.5c-24.4,6.2-49.1,11.6-73.8,16.3
			C339.6,172.5,343.6,187,353.1,185.2L353.1,185.2z"/>
	</g>
</g>
<g class="st8">
	<g>
		<path class="st10" d="M139.4,27.3c-13.5-8.3-35-13.1-47.1,0.1c-6.5,7.1,4.1,17.7,10.6,10.6c7.2-7.8,21.3-2.4,28.9,2.3
			C140.1,45.3,147.6,32.3,139.4,27.3L139.4,27.3z"/>
	</g>
</g>
<g class="st8">
	<g>
		<path class="st10" d="M31.1,71.5c-2.3,9.5-3.2,19.3-2.5,29c0.6,9.6,15.7,9.7,15,0c-0.6-8.5,0-16.8,2-25
			C47.8,66.1,33.3,62.1,31.1,71.5L31.1,71.5z"/>
	</g>
</g>
<g class="st8">
	<g>
		<path class="st10" d="M32.4,145c6.1,7.4,13.3,13.6,21.3,18.9c8.1,5.3,15.6-7.6,7.6-13c-6.9-4.6-13-10.2-18.3-16.6
			c-2.6-3.1-7.9-2.7-10.6,0C29.3,137.5,29.8,141.9,32.4,145L32.4,145z"/>
	</g>
</g>
<g class="st8">
	<g>
		<path class="st10" d="M91.5,186c11.8,1,23.6,1.5,35.5,1.5c9.7,0,9.7-15,0-15c-11.9,0-23.7-0.5-35.5-1.5
			C81.9,170.2,81.9,185.2,91.5,186L91.5,186z"/>
	</g>
</g>
<g class="st8">
	<g>
		<path class="st10" d="M201.5,189c8.8,0,17.7,0,26.5,0c9.7,0,9.7-15,0-15c-8.8,0-17.7,0-26.5,0C191.8,174,191.8,189,201.5,189
			L201.5,189z"/>
	</g>
</g>
<g class="st8">
	<g>
		<path class="st10" d="M170.5,32.5c9.7,0,9.7-15,0-15C160.8,17.5,160.8,32.5,170.5,32.5L170.5,32.5z"/>
	</g>
</g>
<g class="st8">
	<g>
		<path class="st10" d="M204.5,33.5c18.3-1.3,36.7-1.9,55-1.9c9.7,0,9.7-15,0-15c-18.4,0-36.7,0.6-55,1.9
			C194.9,19.2,194.8,34.2,204.5,33.5L204.5,33.5z"/>
	</g>
</g>
<g class="st8">
	<g>
		<path class="st10" d="M310,32.5c12.2-0.3,24.3,0.1,36.5,1c9.6,0.7,9.6-14.3,0-15c-12.2-0.9-24.3-1.2-36.5-1
			C300.4,17.7,300.3,32.7,310,32.5L310,32.5z"/>
	</g>
</g>
<g class="st8">
	<g>
		<path class="st10" d="M385.3,43.9c4.1,7.7,8.5,16.6,7.1,25.6c-0.6,4,1,8,5.2,9.2c3.5,1,8.6-1.2,9.2-5.2
			c2.1-13.5-2.4-25.4-8.6-37.2C393.8,27.8,380.8,35.3,385.3,43.9L385.3,43.9z"/>
	</g>
</g>
<g class="st8">
	<g>
		<path class="st10" d="M391.1,102c-0.4,6.9-1.4,13.7-3,20.5c-2.2,9.4,12.2,13.4,14.5,4c1.9-8,3.1-16.2,3.5-24.5
			C406.6,92.4,391.6,92.4,391.1,102L391.1,102z"/>
	</g>
</g>
<g class="st8">
	<g>
		<path class="st10" d="M349,158.2c-6.7,1.5-13.3,3.1-20,4.6c-9.4,2.2-5.4,16.6,4,14.5c6.7-1.5,13.3-3.1,20-4.6
			C362.4,170.4,358.4,156,349,158.2L349,158.2z"/>
	</g>
</g>
<g class="st8">
	<g>
		<path class="st10" d="M279.5,176.4c-5,0.3-10,0.6-15,1c-4,0.3-7.5,3.3-7.5,7.5c0,3.9,3.4,7.8,7.5,7.5c5-0.3,10-0.6,15-1
			c4-0.3,7.5-3.3,7.5-7.5C287,180,283.6,176.1,279.5,176.4L279.5,176.4z"/>
	</g>
</g>
<g class="st8">
	<g>
		<path class="st10" d="M160.3,192.5c9.7,0,9.7-15,0-15C150.7,177.5,150.7,192.5,160.3,192.5L160.3,192.5z"/>
	</g>
</g>
<g>
	<g>
		<path d="M65.5,105c-3.3,0-6.6,0-9.9,0c-2,0-4.7-0.3-6.5,0.8c-3.8,2.3-4.1,9.3-4.1,13.2c0,3.2,5,3.2,5,0c0-1.9,0.1-3.8,0.6-5.6
			c0.5-2.1,0.6-3.3,2.9-3.4c4-0.1,8,0,12,0C68.7,110,68.7,105,65.5,105L65.5,105z"/>
	</g>
</g>
<g>
	<g>
		<path d="M47,122.6c-3.6-3-8.7-6.8-13.6-7.2c-4.8-0.4-6.9,4.7-8.6,8.4c-1.3,2.9,3,5.4,4.3,2.5c0.7-1.4,1.3-3,2.3-4.3
			c1.3-1.7,1.7-1.8,3.6-1c3.1,1.2,5.9,3,8.5,5.1C45.9,128.1,49.5,124.6,47,122.6L47,122.6z"/>
	</g>
</g>
<g>
	<g>
		<path d="M75.9,114.3c7.3-5,16.3,0.4,15.6,9.2c-0.3,3.2,4.7,3.2,5,0C97.6,111,83.7,103,73.4,110C70.7,111.8,73.2,116.1,75.9,114.3
			L75.9,114.3z"/>
	</g>
</g>
<g>
	<g>
		<path d="M94.3,134.9c3.9,1.5,8.5,2,12,4.4c1.5,1.1,3.2,2.8,2.7,4.8s-3.1,3.2-4.8,4.1c-2.9,1.5-0.3,5.8,2.5,4.3
			c4.9-2.5,9.6-7,6.5-12.9c-3.5-6.4-11.4-7.1-17.5-9.5C92.7,128.9,91.4,133.7,94.3,134.9L94.3,134.9z"/>
	</g>
</g>
<g>
	<g>
		<path d="M98.5,158c0,2.4,1.1,9.3-0.8,10.6c-2.9,2.1-8.8,1.2-12,0.4c-3.1-0.8-4.5,4-1.3,4.8c5,1.2,11.7,1.6,16.3-1.1
			c1.8-1.1,2.7-2.8,2.8-4.9c0.3-3.3,0-6.6,0-9.9C103.5,154.8,98.5,154.8,98.5,158L98.5,158z"/>
	</g>
</g>
<g>
	<g>
		<path d="M68.1,177.5c1.4,2.7-10.8,5-12.3,5.5c-3.1,0.9-1.8,5.7,1.3,4.8c5.4-1.5,20.2-3.8,15.3-12.8
			C70.8,172.1,66.5,174.6,68.1,177.5L68.1,177.5z"/>
	</g>
</g>
<g>
	<g>
		<path d="M21.4,138.1c-2.7,4.1-5.7,9.5-6,14.5c-0.4,5.6,5.8,7.2,9.8,9.1c2.9,1.4,5.4-2.9,2.5-4.3c-3.4-1.7-8.1-2.7-6.6-7.3
			c1.1-3.4,2.7-6.5,4.6-9.5C27.5,137.9,23.1,135.4,21.4,138.1L21.4,138.1z"/>
	</g>
</g>
<g>
	<g>
		<path d="M33.1,170.2c1.4,2.5-0.2,5.9,0.5,8.7c0.6,2.5,2.3,4.5,4.5,5.8c5.3,3.3,11.5,1.3,16.4-1.7c2.8-1.7,0.2-6-2.5-4.3
			c-3.6,2.2-10.3,4.9-13-0.1c-1.1-1.9-0.4-4-0.3-6c0-1.8-0.3-3.4-1.2-4.9C35.8,164.8,31.5,167.4,33.1,170.2L33.1,170.2z"/>
	</g>
</g>
<g>
	<g>
		<path d="M23.9,163.3c-1.2,1.5-2.4,3.2-3.8,4.6c-1.8,1.8-1.4,1.7-3.8,1.1c-2.1-0.6-3.9-1.3-6.1-1.6c-4.2-0.5-7.2-0.1-8.3,4.3
			c-0.9,3.7-0.9,8.1,2.4,10.7c3.8,3,8.2,1,12.4,1.5c-0.7-0.4-1.4-0.8-2.2-1.2c2.6,3.9-1.6,9.1,3,12.6c2.5,1.9,6.1,1.8,8.7,0
			c3.2-2.1,5-6.5,4.8-10.2c-0.1-1.9-0.9-3.1-1.5-4.7c-0.7-2-1.9-0.1,0-2.5c1.1-1.4,3.2-2.7,4.6-3.7c2.6-1.9,0.1-6.2-2.5-4.3
			c-2.5,1.9-6.2,4-7.8,6.7c-1.4,2.4-0.2,3.8,0.9,5.9c0.7,1.3,2.4,7.5-0.8,8.3c-1.4-0.5-2.8-1-4.2-1.6c0-0.9,0.1-1.8,0.2-2.8
			c0.1-2.3,0.3-5.7-2.1-7.1c-2.8-1.7-6.6,1.2-9.5-0.2c-1.6-0.8-3.1-4.9-1.7-6.7c0.7-0.9,4.7,0.3,5.9,0.6c2.9,0.9,5.2,2.8,8.1,1.1
			c2.9-1.8,5.2-5.5,7.3-8.2C30.1,163.2,25.8,160.7,23.9,163.3L23.9,163.3z"/>
	</g>
</g>
<g>
	<g>
		<path d="M59.3,135.8c1.4-0.6,2.8-1.2,4.2-1.8c1.3-0.6,3.2-1.8,4.7-1.8c-0.6-0.2-1.2-0.5-1.8-0.7c1.6,1.3,1.9,4.7,2.1,6.5
			c0.2,2.2,0,4.3-0.5,6.5c-0.7,3.1,4.1,4.5,4.8,1.3c1.2-5.1,1.3-11.8-1.6-16.5c-1.2-2.1-3.2-2.6-5.4-1.8c-3.1,1.1-6,2.6-9,3.9
			C53.8,132.7,56.4,137.1,59.3,135.8L59.3,135.8z"/>
	</g>
</g>
<g>
	<g>
		<path d="M44.3,142.7c-2.3,2.9-4.8,6.2-4.1,10.1c0.6,3.2,3.1,5.8,6.5,5.8c3.2,0,3.2-5,0-5c-1.3,0-1.7-1.7-1.5-2.7
			c0.3-1.8,1.7-3.3,2.7-4.7C49.8,143.8,46.3,140.2,44.3,142.7L44.3,142.7z"/>
	</g>
</g>
<g>
	<g>
		<path d="M75.7,161.9c1.6,2.1-4.4,1.8-5.6,1.9c-2.7,0.2-5.4,0.4-8.1,0.6c-3.2,0.2-3.2,5.2,0,5c3.1-0.2,6.2-0.5,9.3-0.7
			c2.1-0.2,4.6,0,6.6-0.9c3.2-1.4,4.4-5.6,2.2-8.5C78.1,156.9,73.8,159.4,75.7,161.9L75.7,161.9z"/>
	</g>
</g>
<g>
	<g>
		<path d="M83.3,176.3c0.4-1.1,0.3-1.5-0.2-1.2c-0.3,0.1-0.6,0.2-0.9,0.3c-0.7,0.2-1.3,0.4-2,0.5c-1.4,0.2-2.8,0.1-4.2,0
			c-3.2-0.3-3.2,4.7,0,5c3,0.3,6.3,0,9.1-1.2c2.2-0.9,4.2-3.7,2.5-5.9c-0.8-1.1-2.1-1.6-3.4-0.9C83.1,173.5,82.5,175.3,83.3,176.3
			L83.3,176.3z"/>
	</g>
</g>
<g>
	<g>
		<path d="M24.3,163.9c0.2,1.4-0.4,2.5-0.7,3.8c-0.3,1.3-0.3,2.5,0.1,3.7c0.8,2.3,3,3.9,5.5,3.2c3.1-0.9,1.8-5.7-1.3-4.8
			c1-0.3,0.4,0.7,0.5-0.3c0-0.5,0.2-0.9,0.3-1.3c0.4-1.4,0.9-2.8,0.7-4.3c-0.2-1.3-1-2.5-2.5-2.5C25.6,161.4,24.1,162.6,24.3,163.9
			L24.3,163.9z"/>
	</g>
</g>
</svg>
